<svg version="1.1" id="Layer_2_00000179641200170636392640000004410980874146997938_"
	 xmlns="http://www.w3.org/2000/svg" xmlns:xlink="http://www.w3.org/1999/xlink" x="0px" y="0px" width="23.9px" height="27px"
	 viewBox="0 0 23.9 27" style="enable-background:new 0 0 23.9 27;" xml:space="preserve">
<style type="text/css">
	.st0{fill:#E9E9E6;}
</style>
<g>
	<g>
		<g>
			<path class="st0" d="M11.4,5.1c-0.2-0.9-0.2-1.8,0.2-2.8c0,0.6,0,1.3,0.2,1.9C11.9,4,12,3.7,12.2,3.5c-0.1-0.6,0-1.3,0.3-2
				c0,0.5,0,1,0.1,1.5c0.2-0.2,0.4-0.5,0.6-0.7c0-0.5,0.1-0.9,0.3-1.3c0,0.4,0,0.7,0.1,1c0.6-0.4,1.2-0.8,2-1
				c-0.7,0.4-1.2,0.9-1.6,1.3c0.3,0.1,0.6,0.1,0.9,0.1c-0.4,0.1-0.8,0.2-1.2,0.2c-0.3,0.3-0.5,0.6-0.6,0.9c0.5,0.1,1.1,0.1,1.6,0
				c-0.6,0.4-1.2,0.5-1.8,0.5c-0.1,0.4-0.2,0.6-0.3,1c0.5,0,1-0.1,1.5-0.3C13.5,5,13,5.3,12.4,5.4c0,0.2,0,0.5,0,0.7
				c2.7,1.6,1.6-4.4,5.6-5.6C14.7-1.3,8.3,2,11.4,5.3C11.4,5.2,11.4,5.1,11.4,5.1z"/>
			<path class="st0" d="M12.3,7.2c-0.1,0-0.1,0-0.2,0c-0.1-1.3,0.1-3,0.8-4.3c-0.9,1-1.5,3.3-1.6,4.3c-0.8,0-1.6-0.2-2.4-0.7
				C-2.9,2.7-1.7,20.8,5,25.5c2.4,2.1,4.8,1.1,7.4,0.9c7.5,2.5,11.5-6.7,11.5-12.9C23.1,6,18.7,5.2,12.3,7.2z"/>
		</g>
	</g>
</g>
</svg>
