<svg version="1.1" id="Layer_2_00000057121951594246501330000009555360766991829153_"
	 xmlns="http://www.w3.org/2000/svg" xmlns:xlink="http://www.w3.org/1999/xlink" x="0px" y="0px" width="29.1px" height="35.1px"
	 viewBox="0 0 29.1 35.1" style="enable-background:new 0 0 29.1 35.1;" xml:space="preserve">
	 <style type="text/css">
	.st0{fill:#E9E9E6;}
</style>
<g>
	<g>
		<g>
			<path d="M29.1,20.3c0-0.3,0-0.7-0.1-1c-0.1-0.4-0.2-0.9-0.3-1.3c-0.2-0.5-0.4-1.1-0.6-1.6c-0.4-0.8-0.8-1.5-1.4-2.2
				c-0.5-0.5-1.1-1-1.8-1.3c-0.8-0.4-1.8-0.6-2.7-0.6c-0.4,0-0.8,0-1.2,0c-0.5,0-1,0.1-1.4,0.2c-0.4,0.1-0.9,0.2-1.3,0.3
				C17.8,12.9,17.4,13,17,13c-0.4,0.1-0.9,0.1-1.3,0.2c-0.2,0-0.4,0-0.6,0.1h-1.4c-1.2,0-1.6-0.2-2.7-0.7C10,12.1,9,12,8,12
				c-0.3,0-0.5,0-0.8,0c-0.4,0-0.8,0.1-1.2,0.2c-0.7,0.1-1.3,0.4-1.9,0.8c-0.5,0.3-1,0.7-1.4,1.1c-0.5,0.5-0.9,1-1.2,1.6
				c-0.4,0.6-0.7,1.3-0.9,2c-0.1,0.3-0.2,0.6-0.3,0.9c-0.1,0.3-0.1,0.6-0.1,0.9c0,0.4-0.1,0.9-0.1,1.3c0,0.6,0,1.3,0.1,1.9
				c0.1,0.5,0.1,1,0.3,1.4c0.1,0.5,0.3,1,0.5,1.5c0.3,1,0.8,2,1.3,3c0.6,1.1,1.2,2.2,2,3.2c0.3,0.4,0.7,0.9,1.1,1.3
				c0.3,0.3,0.7,0.6,1.1,0.8c0.6,0.4,1.3,0.7,2,1C8.6,34.9,8.9,35,9.2,35c0.5,0.1,1.1,0.1,1.6,0c0.3,0,0.6-0.1,0.9-0.1
				c0.3-0.1,0.7-0.1,1-0.2c0.4-0.1,0.9-0.2,1.3-0.2c0.4,0,0.7,0,1.1,0c0.3,0,0.7,0.1,1,0.1c0.3,0,0.6,0.1,0.9,0.2
				c0.4,0.1,0.8,0.1,1.2,0.2c0.5,0.1,1,0,1.5-0.1c0.7-0.1,1.3-0.4,2-0.7c1-0.6,2-1.2,2.9-2c0.7-0.6,1.4-1.3,1.8-2.1
				c0.3-0.6,0.6-1.1,0.9-1.7c0.3-0.6,0.6-1.2,0.8-1.8c0.2-0.5,0.3-1,0.5-1.5c0.1-0.4,0.2-0.8,0.3-1.2c0.1-0.4,0.1-0.8,0.2-1.3
				c0-0.5,0.1-1,0.1-1.5C29.1,20.8,29.1,20.5,29.1,20.3z M26.9,21.4c0,0.4,0,0.8-0.1,1.3c0,0.4-0.1,0.7-0.1,1.1
				c-0.1,0.4-0.1,0.7-0.2,1c-0.1,0.4-0.2,0.9-0.4,1.3c-0.2,0.5-0.4,1-0.7,1.5c-0.3,0.5-0.5,1-0.8,1.5c-0.4,0.7-0.9,1.3-1.6,1.8
				c-0.7,0.6-1.5,1.2-2.4,1.7c-0.5,0.3-1.1,0.5-1.7,0.6c-0.4,0.1-0.8,0.1-1.2,0.1c-0.3-0.1-0.7-0.1-1-0.2c-0.3,0-0.5-0.1-0.8-0.1
				c-0.3,0-0.6-0.1-0.8-0.1c-0.3,0-0.6,0-0.9,0c-0.4,0-0.8,0.1-1.1,0.2c-0.3,0.1-0.6,0.1-0.9,0.2c-0.2,0-0.5,0.1-0.7,0.1
				c-0.5,0-0.9,0-1.4,0c-0.2,0-0.5-0.1-0.7-0.2c-0.6-0.2-1.2-0.5-1.7-0.8C7.3,32,7,31.8,6.7,31.6c-0.4-0.3-0.7-0.7-1-1.1
				C5,29.7,4.5,28.7,4,27.8c-0.4-0.8-0.8-1.7-1.1-2.5c-0.1-0.4-0.3-0.9-0.4-1.3c-0.1-0.4-0.2-0.8-0.2-1.2c-0.1-0.5-0.1-1.1-0.1-1.6
				c0-0.4,0.1-0.7,0.1-1.1c0-0.3,0.1-0.5,0.1-0.8c0.1-0.3,0.1-0.5,0.2-0.8c0.2-0.6,0.5-1.2,0.8-1.7c0.3-0.5,0.6-0.9,1-1.3
				c0.4-0.4,0.8-0.7,1.2-0.9c0.5-0.3,1-0.5,1.6-0.6c0.3-0.1,0.7-0.1,1-0.1c0.2,0,0.4,0,0.7,0c0.9,0,1.8,0.1,2.5,0.5
				c0.9,0.4,1.2,0.6,2.3,0.6H15c0.2,0,0.4,0,0.5-0.1c0.4-0.1,0.7-0.1,1.1-0.2c0.3-0.1,0.7-0.1,1-0.2c0.4-0.1,0.7-0.2,1.1-0.3
				c0.4-0.1,0.8-0.2,1.2-0.2c0.3,0,0.7,0,1,0c0.8,0,1.6,0.1,2.3,0.5c0.6,0.3,1.1,0.7,1.5,1.1c0.5,0.5,0.9,1.2,1.2,1.8
				c0.2,0.4,0.4,0.9,0.5,1.4c0.1,0.4,0.2,0.7,0.3,1.1c0.1,0.3,0.1,0.6,0.1,0.9C26.9,21,26.9,21.2,26.9,21.4z"/>
		</g>
	</g>
	<path d="M13.8,9.8c0-0.1,0.1-0.2,0.1-0.3c-0.5-1.6-0.5-3.3,0.3-5.2c-0.1,1.2,0,2.4,0.3,3.5c0.2-0.4,0.5-0.9,0.8-1.3
		c-0.1-1.2,0-2.5,0.6-3.9c0,1,0,1.9,0.2,2.8c0.4-0.5,0.9-0.9,1.4-1.3c0.1-0.8,0.3-1.6,0.6-2.4c0,0.7,0,1.3,0.1,1.9
		c1.2-0.8,2.6-1.5,4.3-1.9c-1.4,0.8-2.5,1.6-3.5,2.4c0.6,0.1,1.3,0.1,1.9,0.1c-0.8,0.2-1.7,0.4-2.5,0.4c-0.6,0.6-1,1.1-1.4,1.7
		c1.1,0.1,2.2,0.1,3.3,0C19.3,7,18,7.2,16.7,7.2c-0.3,0.6-0.5,1.2-0.6,1.9c1,0,2-0.2,3.2-0.6c-1,0.9-2.2,1.4-3.3,1.6
		c0,0.4,0,0.9,0,1.3c5.6,3.1,3.4-8.2,11.7-10.5C20.5-2.4,7.5,3.8,13.8,9.8L13.8,9.8z M15.3,14.1c-0.3,0.1-1.4,0.4-1.7,0.1
		c-0.2-1.5,1.2-6.5,3.4-8.7C15.3,8.1,15,11.7,15.3,14.1L15.3,14.1L15.3,14.1z"/>
</g>
</svg>
