<svg version="1.1" id="Layer_2_00000057121951594246501330000009555360766991829153_"
	 xmlns="http://www.w3.org/2000/svg" xmlns:xlink="http://www.w3.org/1999/xlink" x="0px" y="0px" width="35.2px" height="17.8px"
	 viewBox="0 0 35.2 17.8" style="enable-background:new 0 0 35.2 17.8;" xml:space="preserve">
<style type="text/css">
	.st0{fill:##E9E9E6;}
</style>
<g id="_30">
	<path class="st0" d="M35.2,9.5v1.7h-5.7l-2.9,3.6c-0.3,0.3-0.7,0.4-1.3,0.4c-0.5-0.1-1-0.3-1.1-0.6l-2.2-4l-2.1,3
		c-0.2,0.3-0.7,0.5-1.3,0.4c-0.7,0-1.1-0.3-1.3-0.7l-1.8-7.2L13.5,17c-0.2,0.4-0.6,0.7-1.3,0.7l0,0c-0.7,0-1.2-0.3-1.4-0.6L8.3,8.7
		l-1.7,2.1C6.5,11,6,11.2,5.5,11.2H0V9.5h4.7l2.9-3.8C7.9,5.3,8.5,5.2,9,5.2c0.5,0.1,1,0.3,1.1,0.7l1.8,5.9l2.2-11.1
		C14.3,0.3,14.9,0,15.4,0c0.7,0,1.2,0.3,1.4,0.7l2.5,9.6L21,7.9c0.1-0.4,0.7-0.5,1.2-0.5s1,0.3,1.2,0.6l2.4,4.3l1.8-2.3
		c0.3-0.3,0.7-0.4,1.2-0.4L35.2,9.5L35.2,9.5z"/>
</g>
</svg>
